<svg xmlns="http://www.w3.org/2000/svg" width="24" height="24" viewBox="0 0 24 24" fill="none" stroke="currentColor" stroke-width="2" stroke-linecap="round" stroke-linejoin="round">
    <path d="M17.94 17.94A10.94 10.94 0 0 1 12 20c-7 0-11-8-11-8a19.86 19.86 0 0 1 3.22-4.88"></path>
    <path d="M9.88 9.88A3 3 0 0 0 12 15a3 3 0 0 0 2.12-.88"></path>
    <path d="M10.73 5.08A10.94 10.94 0 0 1 12 4c7 0 11 8 11 8a19.86 19.86 0 0 1-2.44 3.34"></path>
    <line x1="1" y1="1" x2="23" y2="23"></line>
</svg>
